<svg xmlns="http://www.w3.org/2000/svg" version="1.1" xmlns:xlink="http://www.w3.org/1999/xlink" xmlns:svgjs="http://svgjs.com/svgjs" width="555" height="289" preserveAspectRatio="none" viewBox="0 0 555 289"><g mask="url(&quot;#SvgjsMask1366&quot;)" fill="none"><rect width="555" height="289" x="0" y="0" fill="#0e2a47"></rect><g mask="url(&quot;#SvgjsMask1368&quot;)"><path d="M312 104L328 120M72 152L88 152L104 152L120 152L136 152L152 152L168 152L184 152L200 168L216 168L232 168M120 120L136 136M264 104L280 88L296 88M456 120L472 104M408 120L424 136L440 136L456 136L472 136M344 104L360 120L376 120L392 136L408 136L424 152L440 152M248 104L264 120M-8 152L8 152L24 152L40 152L56 152L72 152L88 136L104 120L120 120L136 120L152 120L168 120L184 120L200 120L216 120L232 104L248 104L264 104L280 104L296 104L312 104L328 104L344 104L360 104L376 104L392 120L408 120L424 120L440 120L456 120L472 120L488 120L504 120" stroke="url(#SvgjsLinearGradient1367)" stroke-width="2.67"></path><path d="M500 120 a4 4 0 1 0 8 0 a4 4 0 1 0 -8 0zM324 120 a4 4 0 1 0 8 0 a4 4 0 1 0 -8 0zM228 168 a4 4 0 1 0 8 0 a4 4 0 1 0 -8 0zM132 136 a4 4 0 1 0 8 0 a4 4 0 1 0 -8 0zM292 88 a4 4 0 1 0 8 0 a4 4 0 1 0 -8 0zM468 104 a4 4 0 1 0 8 0 a4 4 0 1 0 -8 0zM468 136 a4 4 0 1 0 8 0 a4 4 0 1 0 -8 0zM436 152 a4 4 0 1 0 8 0 a4 4 0 1 0 -8 0zM260 120 a4 4 0 1 0 8 0 a4 4 0 1 0 -8 0z" fill="url(#SvgjsLinearGradient1367)"></path><path d="M24 120L40 136M56 120L72 136M8 136L24 136M-8 136L8 136L24 120L40 120L56 120L72 120L88 120L104 104L120 104L136 104L152 104L168 104L184 104L200 104" stroke="url(#SvgjsLinearGradient1367)" stroke-width="2.67"></path><path d="M196 104 a4 4 0 1 0 8 0 a4 4 0 1 0 -8 0zM36 136 a4 4 0 1 0 8 0 a4 4 0 1 0 -8 0zM68 136 a4 4 0 1 0 8 0 a4 4 0 1 0 -8 0zM20 136 a4 4 0 1 0 8 0 a4 4 0 1 0 -8 0z" fill="url(#SvgjsLinearGradient1367)"></path><path d="M248 184L264 184L280 184L296 184M168 168L184 168M-8 168L8 168L24 168L40 168L56 168L72 168L88 168L104 168L120 168L136 168L152 168L168 168L184 184L200 184L216 184L232 184L248 184L264 168" stroke="url(#SvgjsLinearGradient1367)" stroke-width="2.67"></path><path d="M260 168 a4 4 0 1 0 8 0 a4 4 0 1 0 -8 0zM292 184 a4 4 0 1 0 8 0 a4 4 0 1 0 -8 0zM180 168 a4 4 0 1 0 8 0 a4 4 0 1 0 -8 0z" fill="url(#SvgjsLinearGradient1367)"></path><path d="M296 72L312 72L328 72L344 72M136 88L152 72L168 72L184 72L200 72L216 72L232 56M232 72L248 88L264 88M264 72L280 56L296 56L312 56L328 56M216 88L232 88M360 88L376 72L392 72M-8 120L8 120L24 104L40 104L56 104L72 104L88 104L104 88L120 88L136 88L152 88L168 88L184 88L200 88L216 88L232 72L248 72L264 72L280 72L296 72L312 88L328 88L344 88L360 88L376 88" stroke="url(#SvgjsLinearGradient1367)" stroke-width="2.67"></path><path d="M372 88 a4 4 0 1 0 8 0 a4 4 0 1 0 -8 0zM340 72 a4 4 0 1 0 8 0 a4 4 0 1 0 -8 0zM228 56 a4 4 0 1 0 8 0 a4 4 0 1 0 -8 0zM260 88 a4 4 0 1 0 8 0 a4 4 0 1 0 -8 0zM324 56 a4 4 0 1 0 8 0 a4 4 0 1 0 -8 0zM228 88 a4 4 0 1 0 8 0 a4 4 0 1 0 -8 0zM388 72 a4 4 0 1 0 8 0 a4 4 0 1 0 -8 0z" fill="url(#SvgjsLinearGradient1367)"></path><path d="M248 200L264 200L280 200L296 200L312 200M-8 184L8 184L24 184L40 184L56 184L72 184L88 184L104 184L120 184L136 184L152 184L168 184L184 200L200 200L216 200L232 200L248 200L264 216" stroke="url(#SvgjsLinearGradient1367)" stroke-width="2.67"></path><path d="M260 216 a4 4 0 1 0 8 0 a4 4 0 1 0 -8 0zM308 200 a4 4 0 1 0 8 0 a4 4 0 1 0 -8 0z" fill="url(#SvgjsLinearGradient1367)"></path><path d="M104 72L120 72L136 72M72 88L88 72L104 56L120 40L136 40M200 40L216 56M168 56L184 56L200 56M-8 104L8 104L24 88L40 88L56 88L72 88L88 88L104 72L120 56L136 56L152 56L168 56L184 40L200 40L216 40L232 40L248 40" stroke="url(#SvgjsLinearGradient1367)" stroke-width="2.67"></path><path d="M244 40 a4 4 0 1 0 8 0 a4 4 0 1 0 -8 0zM132 72 a4 4 0 1 0 8 0 a4 4 0 1 0 -8 0zM132 40 a4 4 0 1 0 8 0 a4 4 0 1 0 -8 0zM212 56 a4 4 0 1 0 8 0 a4 4 0 1 0 -8 0zM196 56 a4 4 0 1 0 8 0 a4 4 0 1 0 -8 0z" fill="url(#SvgjsLinearGradient1367)"></path><path d="M264 232L280 248L296 248L312 264L328 264M184 216L200 232L216 232L232 232L248 232L264 248L280 264L296 264M328 248L344 232L360 232L376 232L392 232L408 232L424 232M8 200L24 216L40 216L56 216M312 248L328 232L344 216L360 216L376 216L392 216M152 200L168 216L184 232L200 248L216 248M-8 200L8 200L24 200L40 200L56 200L72 200L88 200L104 200L120 200L136 200L152 200L168 200L184 216L200 216L216 216L232 216L248 216L264 232L280 232L296 232L312 248L328 248L344 248L360 248L376 248L392 248L408 248" stroke="url(#SvgjsLinearGradient1367)" stroke-width="2.67"></path><path d="M404 248 a4 4 0 1 0 8 0 a4 4 0 1 0 -8 0zM324 264 a4 4 0 1 0 8 0 a4 4 0 1 0 -8 0zM292 264 a4 4 0 1 0 8 0 a4 4 0 1 0 -8 0zM420 232 a4 4 0 1 0 8 0 a4 4 0 1 0 -8 0zM52 216 a4 4 0 1 0 8 0 a4 4 0 1 0 -8 0zM388 216 a4 4 0 1 0 8 0 a4 4 0 1 0 -8 0zM212 248 a4 4 0 1 0 8 0 a4 4 0 1 0 -8 0z" fill="url(#SvgjsLinearGradient1367)"></path><path d="M24 72L40 56L56 56M-8 88L8 88L24 72L40 72" stroke="url(#SvgjsLinearGradient1367)" stroke-width="2.67"></path><path d="M36 72 a4 4 0 1 0 8 0 a4 4 0 1 0 -8 0zM52 56 a4 4 0 1 0 8 0 a4 4 0 1 0 -8 0z" fill="url(#SvgjsLinearGradient1367)"></path></g></g><defs><mask id="SvgjsMask1366"><rect width="555" height="289" fill="#ffffff"></rect></mask><linearGradient x1="0" y1="144.5" x2="555" y2="144.5" gradientUnits="userSpaceOnUse" id="SvgjsLinearGradient1367"><stop stop-color="#3a7cc3" offset="0"></stop><stop stop-color="rgba(17, 221, 47, 1)" offset="1"></stop></linearGradient><mask id="SvgjsMask1368"><rect width="555" height="289" fill="white"></rect><path d="M502 120 a2 2 0 1 0 4 0 a2 2 0 1 0 -4 0zM326 120 a2 2 0 1 0 4 0 a2 2 0 1 0 -4 0zM230 168 a2 2 0 1 0 4 0 a2 2 0 1 0 -4 0zM134 136 a2 2 0 1 0 4 0 a2 2 0 1 0 -4 0zM294 88 a2 2 0 1 0 4 0 a2 2 0 1 0 -4 0zM470 104 a2 2 0 1 0 4 0 a2 2 0 1 0 -4 0zM470 136 a2 2 0 1 0 4 0 a2 2 0 1 0 -4 0zM438 152 a2 2 0 1 0 4 0 a2 2 0 1 0 -4 0zM262 120 a2 2 0 1 0 4 0 a2 2 0 1 0 -4 0z" fill="black"></path><path d="M198 104 a2 2 0 1 0 4 0 a2 2 0 1 0 -4 0zM38 136 a2 2 0 1 0 4 0 a2 2 0 1 0 -4 0zM70 136 a2 2 0 1 0 4 0 a2 2 0 1 0 -4 0zM22 136 a2 2 0 1 0 4 0 a2 2 0 1 0 -4 0z" fill="black"></path><path d="M262 168 a2 2 0 1 0 4 0 a2 2 0 1 0 -4 0zM294 184 a2 2 0 1 0 4 0 a2 2 0 1 0 -4 0zM182 168 a2 2 0 1 0 4 0 a2 2 0 1 0 -4 0z" fill="black"></path><path d="M374 88 a2 2 0 1 0 4 0 a2 2 0 1 0 -4 0zM342 72 a2 2 0 1 0 4 0 a2 2 0 1 0 -4 0zM230 56 a2 2 0 1 0 4 0 a2 2 0 1 0 -4 0zM262 88 a2 2 0 1 0 4 0 a2 2 0 1 0 -4 0zM326 56 a2 2 0 1 0 4 0 a2 2 0 1 0 -4 0zM230 88 a2 2 0 1 0 4 0 a2 2 0 1 0 -4 0zM390 72 a2 2 0 1 0 4 0 a2 2 0 1 0 -4 0z" fill="black"></path><path d="M262 216 a2 2 0 1 0 4 0 a2 2 0 1 0 -4 0zM310 200 a2 2 0 1 0 4 0 a2 2 0 1 0 -4 0z" fill="black"></path><path d="M246 40 a2 2 0 1 0 4 0 a2 2 0 1 0 -4 0zM134 72 a2 2 0 1 0 4 0 a2 2 0 1 0 -4 0zM134 40 a2 2 0 1 0 4 0 a2 2 0 1 0 -4 0zM214 56 a2 2 0 1 0 4 0 a2 2 0 1 0 -4 0zM198 56 a2 2 0 1 0 4 0 a2 2 0 1 0 -4 0z" fill="black"></path><path d="M406 248 a2 2 0 1 0 4 0 a2 2 0 1 0 -4 0zM326 264 a2 2 0 1 0 4 0 a2 2 0 1 0 -4 0zM294 264 a2 2 0 1 0 4 0 a2 2 0 1 0 -4 0zM422 232 a2 2 0 1 0 4 0 a2 2 0 1 0 -4 0zM54 216 a2 2 0 1 0 4 0 a2 2 0 1 0 -4 0zM390 216 a2 2 0 1 0 4 0 a2 2 0 1 0 -4 0zM214 248 a2 2 0 1 0 4 0 a2 2 0 1 0 -4 0z" fill="black"></path><path d="M38 72 a2 2 0 1 0 4 0 a2 2 0 1 0 -4 0zM54 56 a2 2 0 1 0 4 0 a2 2 0 1 0 -4 0z" fill="black"></path></mask></defs></svg>