<svg xmlns="http://www.w3.org/2000/svg" version="1.1" xmlns:xlink="http://www.w3.org/1999/xlink" xmlns:svgjs="http://svgjs.com/svgjs" width="1440" height="560" preserveAspectRatio="none" viewBox="0 0 1440 560"><g mask="url(&quot;#SvgjsMask1002&quot;)" fill="none"><rect width="1440" height="560" x="0" y="0" fill="rgba(218, 231, 255, 1)"></rect><path d="M278.98 403.53L343.93 441.03L343.93 516.03L278.98 553.53L214.02 516.03L214.02 441.03zM343.93 516.03L408.88 553.53L408.88 628.53L343.93 666.03L278.98 628.53L278.98 553.53zM473.84 291.03L538.79 328.53L538.79 403.53L473.84 441.03L408.88 403.53L408.88 328.53zM603.74 516.03L668.7 553.53L668.7 628.53L603.74 666.03L538.79 628.53L538.79 553.53zM668.7 -46.47L733.65 -8.97L733.65 66.03L668.7 103.53L603.74 66.03L603.74 -8.97zM733.65 291.03L798.61 328.53L798.61 403.53L733.65 441.03L668.7 403.53L668.7 328.53zM733.65 516.03L798.61 553.53L798.61 628.53L733.65 666.03L668.7 628.53L668.7 553.53zM798.6 178.53L863.56 216.03L863.56 291.03L798.6 328.53L733.65 291.03L733.65 216.03zM863.56 291.03L928.51 328.53L928.51 403.53L863.56 441.03L798.6 403.53L798.6 328.53zM863.56 516.03L928.51 553.53L928.51 628.53L863.56 666.03L798.6 628.53L798.6 553.53zM993.47 66.03L1058.42 103.53L1058.42 178.53L993.47 216.03L928.51 178.53L928.51 103.53zM928.51 178.53L993.47 216.03L993.47 291.03L928.51 328.53L863.56 291.03L863.56 216.03zM928.51 403.53L993.47 441.03L993.47 516.03L928.51 553.53L863.56 516.03L863.56 441.03zM993.47 516.03L1058.42 553.53L1058.42 628.53L993.47 666.03L928.51 628.53L928.51 553.53zM1058.42 -46.47L1123.37 -8.97L1123.37 66.03L1058.42 103.53L993.47 66.03L993.47 -8.97zM1123.37 66.03L1188.33 103.53L1188.33 178.53L1123.37 216.03L1058.42 178.53L1058.42 103.53zM1058.42 403.53L1123.37 441.03L1123.37 516.03L1058.42 553.53L993.47 516.03L993.47 441.03zM1253.28 291.03L1318.23 328.53L1318.23 403.53L1253.28 441.03L1188.33 403.53L1188.33 328.53zM1318.24 178.53L1383.19 216.03L1383.19 291.03L1318.24 328.53L1253.28 291.03L1253.28 216.03zM1318.24 403.53L1383.19 441.03L1383.19 516.03L1318.24 553.53L1253.28 516.03L1253.28 441.03zM1513.1 66.03L1578.05 103.53L1578.05 178.53L1513.1 216.03L1448.14 178.53L1448.14 103.53zM1448.14 178.53L1513.1 216.03L1513.1 291.03L1448.14 328.53L1383.19 291.03L1383.19 216.03zM1448.14 403.53L1513.1 441.03L1513.1 516.03L1448.14 553.53L1383.19 516.03L1383.19 441.03z" stroke="#03305d" stroke-width="2"></path><path d="M271.48 403.53 a7.5 7.5 0 1 0 15 0 a7.5 7.5 0 1 0 -15 0zM336.43 441.03 a7.5 7.5 0 1 0 15 0 a7.5 7.5 0 1 0 -15 0zM336.43 516.03 a7.5 7.5 0 1 0 15 0 a7.5 7.5 0 1 0 -15 0zM271.48 553.53 a7.5 7.5 0 1 0 15 0 a7.5 7.5 0 1 0 -15 0zM206.52 516.03 a7.5 7.5 0 1 0 15 0 a7.5 7.5 0 1 0 -15 0zM206.52 441.03 a7.5 7.5 0 1 0 15 0 a7.5 7.5 0 1 0 -15 0zM401.38 553.53 a7.5 7.5 0 1 0 15 0 a7.5 7.5 0 1 0 -15 0zM401.38 628.53 a7.5 7.5 0 1 0 15 0 a7.5 7.5 0 1 0 -15 0zM336.43 666.03 a7.5 7.5 0 1 0 15 0 a7.5 7.5 0 1 0 -15 0zM271.48 628.53 a7.5 7.5 0 1 0 15 0 a7.5 7.5 0 1 0 -15 0zM466.34 291.03 a7.5 7.5 0 1 0 15 0 a7.5 7.5 0 1 0 -15 0zM531.29 328.53 a7.5 7.5 0 1 0 15 0 a7.5 7.5 0 1 0 -15 0zM531.29 403.53 a7.5 7.5 0 1 0 15 0 a7.5 7.5 0 1 0 -15 0zM466.34 441.03 a7.5 7.5 0 1 0 15 0 a7.5 7.5 0 1 0 -15 0zM401.38 403.53 a7.5 7.5 0 1 0 15 0 a7.5 7.5 0 1 0 -15 0zM401.38 328.53 a7.5 7.5 0 1 0 15 0 a7.5 7.5 0 1 0 -15 0zM596.24 516.03 a7.5 7.5 0 1 0 15 0 a7.5 7.5 0 1 0 -15 0zM661.2 553.53 a7.5 7.5 0 1 0 15 0 a7.5 7.5 0 1 0 -15 0zM661.2 628.53 a7.5 7.5 0 1 0 15 0 a7.5 7.5 0 1 0 -15 0zM596.24 666.03 a7.5 7.5 0 1 0 15 0 a7.5 7.5 0 1 0 -15 0zM531.29 628.53 a7.5 7.5 0 1 0 15 0 a7.5 7.5 0 1 0 -15 0zM531.29 553.53 a7.5 7.5 0 1 0 15 0 a7.5 7.5 0 1 0 -15 0zM661.2 -46.47 a7.5 7.5 0 1 0 15 0 a7.5 7.5 0 1 0 -15 0zM726.15 -8.97 a7.5 7.5 0 1 0 15 0 a7.5 7.5 0 1 0 -15 0zM726.15 66.03 a7.5 7.5 0 1 0 15 0 a7.5 7.5 0 1 0 -15 0zM661.2 103.53 a7.5 7.5 0 1 0 15 0 a7.5 7.5 0 1 0 -15 0zM596.24 66.03 a7.5 7.5 0 1 0 15 0 a7.5 7.5 0 1 0 -15 0zM596.24 -8.97 a7.5 7.5 0 1 0 15 0 a7.5 7.5 0 1 0 -15 0zM726.15 291.03 a7.5 7.5 0 1 0 15 0 a7.5 7.5 0 1 0 -15 0zM791.11 328.53 a7.5 7.5 0 1 0 15 0 a7.5 7.5 0 1 0 -15 0zM791.11 403.53 a7.5 7.5 0 1 0 15 0 a7.5 7.5 0 1 0 -15 0zM726.15 441.03 a7.5 7.5 0 1 0 15 0 a7.5 7.5 0 1 0 -15 0zM661.2 403.53 a7.5 7.5 0 1 0 15 0 a7.5 7.5 0 1 0 -15 0zM661.2 328.53 a7.5 7.5 0 1 0 15 0 a7.5 7.5 0 1 0 -15 0zM726.15 516.03 a7.5 7.5 0 1 0 15 0 a7.5 7.5 0 1 0 -15 0zM791.11 553.53 a7.5 7.5 0 1 0 15 0 a7.5 7.5 0 1 0 -15 0zM791.11 628.53 a7.5 7.5 0 1 0 15 0 a7.5 7.5 0 1 0 -15 0zM726.15 666.03 a7.5 7.5 0 1 0 15 0 a7.5 7.5 0 1 0 -15 0zM791.1 178.53 a7.5 7.5 0 1 0 15 0 a7.5 7.5 0 1 0 -15 0zM856.06 216.03 a7.5 7.5 0 1 0 15 0 a7.5 7.5 0 1 0 -15 0zM856.06 291.03 a7.5 7.5 0 1 0 15 0 a7.5 7.5 0 1 0 -15 0zM791.1 328.53 a7.5 7.5 0 1 0 15 0 a7.5 7.5 0 1 0 -15 0zM726.15 216.03 a7.5 7.5 0 1 0 15 0 a7.5 7.5 0 1 0 -15 0zM921.01 328.53 a7.5 7.5 0 1 0 15 0 a7.5 7.5 0 1 0 -15 0zM921.01 403.53 a7.5 7.5 0 1 0 15 0 a7.5 7.5 0 1 0 -15 0zM856.06 441.03 a7.5 7.5 0 1 0 15 0 a7.5 7.5 0 1 0 -15 0zM791.1 403.53 a7.5 7.5 0 1 0 15 0 a7.5 7.5 0 1 0 -15 0zM856.06 516.03 a7.5 7.5 0 1 0 15 0 a7.5 7.5 0 1 0 -15 0zM921.01 553.53 a7.5 7.5 0 1 0 15 0 a7.5 7.5 0 1 0 -15 0zM921.01 628.53 a7.5 7.5 0 1 0 15 0 a7.5 7.5 0 1 0 -15 0zM856.06 666.03 a7.5 7.5 0 1 0 15 0 a7.5 7.5 0 1 0 -15 0zM791.1 628.53 a7.5 7.5 0 1 0 15 0 a7.5 7.5 0 1 0 -15 0zM791.1 553.53 a7.5 7.5 0 1 0 15 0 a7.5 7.5 0 1 0 -15 0zM985.97 66.03 a7.5 7.5 0 1 0 15 0 a7.5 7.5 0 1 0 -15 0zM1050.92 103.53 a7.5 7.5 0 1 0 15 0 a7.5 7.5 0 1 0 -15 0zM1050.92 178.53 a7.5 7.5 0 1 0 15 0 a7.5 7.5 0 1 0 -15 0zM985.97 216.03 a7.5 7.5 0 1 0 15 0 a7.5 7.5 0 1 0 -15 0zM921.01 178.53 a7.5 7.5 0 1 0 15 0 a7.5 7.5 0 1 0 -15 0zM921.01 103.53 a7.5 7.5 0 1 0 15 0 a7.5 7.5 0 1 0 -15 0zM985.97 291.03 a7.5 7.5 0 1 0 15 0 a7.5 7.5 0 1 0 -15 0zM985.97 441.03 a7.5 7.5 0 1 0 15 0 a7.5 7.5 0 1 0 -15 0zM985.97 516.03 a7.5 7.5 0 1 0 15 0 a7.5 7.5 0 1 0 -15 0zM1050.92 553.53 a7.5 7.5 0 1 0 15 0 a7.5 7.5 0 1 0 -15 0zM1050.92 628.53 a7.5 7.5 0 1 0 15 0 a7.5 7.5 0 1 0 -15 0zM985.97 666.03 a7.5 7.5 0 1 0 15 0 a7.5 7.5 0 1 0 -15 0zM1050.92 -46.47 a7.5 7.5 0 1 0 15 0 a7.5 7.5 0 1 0 -15 0zM1115.87 -8.97 a7.5 7.5 0 1 0 15 0 a7.5 7.5 0 1 0 -15 0zM1115.87 66.03 a7.5 7.5 0 1 0 15 0 a7.5 7.5 0 1 0 -15 0zM985.97 -8.97 a7.5 7.5 0 1 0 15 0 a7.5 7.5 0 1 0 -15 0zM1180.83 103.53 a7.5 7.5 0 1 0 15 0 a7.5 7.5 0 1 0 -15 0zM1180.83 178.53 a7.5 7.5 0 1 0 15 0 a7.5 7.5 0 1 0 -15 0zM1115.87 216.03 a7.5 7.5 0 1 0 15 0 a7.5 7.5 0 1 0 -15 0zM1050.92 403.53 a7.5 7.5 0 1 0 15 0 a7.5 7.5 0 1 0 -15 0zM1115.87 441.03 a7.5 7.5 0 1 0 15 0 a7.5 7.5 0 1 0 -15 0zM1115.87 516.03 a7.5 7.5 0 1 0 15 0 a7.5 7.5 0 1 0 -15 0zM1245.78 291.03 a7.5 7.5 0 1 0 15 0 a7.5 7.5 0 1 0 -15 0zM1310.73 328.53 a7.5 7.5 0 1 0 15 0 a7.5 7.5 0 1 0 -15 0zM1310.73 403.53 a7.5 7.5 0 1 0 15 0 a7.5 7.5 0 1 0 -15 0zM1245.78 441.03 a7.5 7.5 0 1 0 15 0 a7.5 7.5 0 1 0 -15 0zM1180.83 403.53 a7.5 7.5 0 1 0 15 0 a7.5 7.5 0 1 0 -15 0zM1180.83 328.53 a7.5 7.5 0 1 0 15 0 a7.5 7.5 0 1 0 -15 0zM1310.74 178.53 a7.5 7.5 0 1 0 15 0 a7.5 7.5 0 1 0 -15 0zM1375.69 216.03 a7.5 7.5 0 1 0 15 0 a7.5 7.5 0 1 0 -15 0zM1375.69 291.03 a7.5 7.5 0 1 0 15 0 a7.5 7.5 0 1 0 -15 0zM1310.74 328.53 a7.5 7.5 0 1 0 15 0 a7.5 7.5 0 1 0 -15 0zM1245.78 216.03 a7.5 7.5 0 1 0 15 0 a7.5 7.5 0 1 0 -15 0zM1310.74 403.53 a7.5 7.5 0 1 0 15 0 a7.5 7.5 0 1 0 -15 0zM1375.69 441.03 a7.5 7.5 0 1 0 15 0 a7.5 7.5 0 1 0 -15 0zM1375.69 516.03 a7.5 7.5 0 1 0 15 0 a7.5 7.5 0 1 0 -15 0zM1310.74 553.53 a7.5 7.5 0 1 0 15 0 a7.5 7.5 0 1 0 -15 0zM1245.78 516.03 a7.5 7.5 0 1 0 15 0 a7.5 7.5 0 1 0 -15 0zM1505.6 66.03 a7.5 7.5 0 1 0 15 0 a7.5 7.5 0 1 0 -15 0zM1570.55 103.53 a7.5 7.5 0 1 0 15 0 a7.5 7.5 0 1 0 -15 0zM1570.55 178.53 a7.5 7.5 0 1 0 15 0 a7.5 7.5 0 1 0 -15 0zM1505.6 216.03 a7.5 7.5 0 1 0 15 0 a7.5 7.5 0 1 0 -15 0zM1440.64 178.53 a7.5 7.5 0 1 0 15 0 a7.5 7.5 0 1 0 -15 0zM1440.64 103.53 a7.5 7.5 0 1 0 15 0 a7.5 7.5 0 1 0 -15 0zM1505.6 291.03 a7.5 7.5 0 1 0 15 0 a7.5 7.5 0 1 0 -15 0zM1440.64 328.53 a7.5 7.5 0 1 0 15 0 a7.5 7.5 0 1 0 -15 0zM1440.64 403.53 a7.5 7.5 0 1 0 15 0 a7.5 7.5 0 1 0 -15 0zM1505.6 441.03 a7.5 7.5 0 1 0 15 0 a7.5 7.5 0 1 0 -15 0zM1505.6 516.03 a7.5 7.5 0 1 0 15 0 a7.5 7.5 0 1 0 -15 0zM1440.64 553.53 a7.5 7.5 0 1 0 15 0 a7.5 7.5 0 1 0 -15 0z" fill="#03305d"></path><path d="M32.35 -31.64L75.65 -6.64L75.65 43.36L32.35 68.36L-10.95 43.36L-10.95 -6.64zM32.35 118.36L75.65 143.36L75.65 193.36L32.35 218.36L-10.95 193.36L-10.95 143.36zM118.96 118.36L162.26 143.36L162.26 193.36L118.96 218.36L75.65 193.36L75.65 143.36zM162.26 193.36L205.56 218.36L205.56 268.36L162.26 293.36L118.96 268.36L118.96 218.36zM335.47 43.36L378.77 68.36L378.77 118.36L335.47 143.36L292.17 118.36L292.17 68.36zM335.47 193.36L378.77 218.36L378.77 268.36L335.47 293.36L292.17 268.36L292.17 218.36zM422.07 43.36L465.38 68.36L465.38 118.36L422.07 143.36L378.77 118.36L378.77 68.36zM465.38 268.36L508.68 293.36L508.68 343.36L465.38 368.36L422.07 343.36L422.07 293.36zM508.68 493.36L551.98 518.36L551.98 568.36L508.68 593.36L465.38 568.36L465.38 518.36zM551.98 -31.64L595.28 -6.64L595.28 43.36L551.98 68.36L508.68 43.36L508.68 -6.64zM681.89 43.36L725.19 68.36L725.19 118.36L681.89 143.36L638.59 118.36L638.59 68.36zM681.89 193.36L725.19 218.36L725.19 268.36L681.89 293.36L638.59 268.36L638.59 218.36zM638.59 418.36L681.89 443.36L681.89 493.36L638.59 518.36L595.28 493.36L595.28 443.36zM725.19 -31.64L768.49 -6.64L768.49 43.36L725.19 68.36L681.89 43.36L681.89 -6.64zM811.8 418.36L855.1 443.36L855.1 493.36L811.8 518.36L768.49 493.36L768.49 443.36zM1114.91 343.36L1158.21 368.36L1158.21 418.36L1114.91 443.36L1071.61 418.36L1071.61 368.36zM1158.21 118.36L1201.52 143.36L1201.52 193.36L1158.21 218.36L1114.91 193.36L1114.91 143.36zM1201.52 343.36L1244.82 368.36L1244.82 418.36L1201.52 443.36L1158.21 418.36L1158.21 368.36zM1244.82 418.36L1288.12 443.36L1288.12 493.36L1244.82 518.36L1201.52 493.36L1201.52 443.36zM1374.73 43.36L1418.03 68.36L1418.03 118.36L1374.73 143.36L1331.42 118.36L1331.42 68.36zM1331.42 118.36L1374.73 143.36L1374.73 193.36L1331.42 218.36L1288.12 193.36L1288.12 143.36zM1374.73 343.36L1418.03 368.36L1418.03 418.36L1374.73 443.36L1331.42 418.36L1331.42 368.36zM1461.33 493.36L1504.63 518.36L1504.63 568.36L1461.33 593.36L1418.03 568.36L1418.03 518.36z" stroke="rgba(6, 80, 156, 0.93)" stroke-width="2"></path></g><defs><mask id="SvgjsMask1002"><rect width="1440" height="560" fill="#ffffff"></rect></mask></defs></svg>