<?xml version="1.0" encoding="UTF-8"?>
<svg xmlns="http://www.w3.org/2000/svg" xmlns:xlink="http://www.w3.org/1999/xlink" width="1125pt" height="1124.99995pt" viewBox="0 0 1125 1124.99995" version="1.2">
<defs>
<clipPath id="clip1">
  <path d="M 385.558594 409.089844 L 692.308594 409.089844 L 692.308594 715.839844 L 385.558594 715.839844 Z M 385.558594 409.089844 "/>
</clipPath>
<clipPath id="clip2">
  <path d="M 432.660156 455.75 L 739.410156 455.75 L 739.410156 656.894531 L 432.660156 656.894531 Z M 432.660156 455.75 "/>
</clipPath>
</defs>
<g id="surface1">
<rect x="0" y="0" width="1125" height="1124.99995" style="fill:rgb(100%,100%,100%);fill-opacity:1;stroke:none;"/>
<g clip-path="url(#clip1)" clip-rule="nonzero">
<path style=" stroke:none;fill-rule:nonzero;fill:rgb(81.17981%,80.778503%,96.469116%);fill-opacity:1;" d="M 538.933594 409.089844 C 454.363281 409.089844 385.558594 477.894531 385.558594 562.464844 C 385.558594 647.035156 454.363281 715.839844 538.933594 715.839844 C 623.507812 715.839844 692.308594 647.035156 692.308594 562.464844 C 692.308594 477.894531 623.507812 409.089844 538.933594 409.089844 Z M 538.933594 409.089844 "/>
</g>
<g clip-path="url(#clip2)" clip-rule="nonzero">
<path style=" stroke:none;fill-rule:nonzero;fill:rgb(26.669312%,0.389099%,79.60968%);fill-opacity:1;" d="M 699.160156 462.601562 C 711.195312 462.765625 722.742188 467.167969 731.839844 475.027344 C 732.847656 475.953125 732.929688 477.527344 732.003906 478.5625 C 731.867188 478.699219 731.730469 478.832031 731.566406 478.941406 C 718.742188 489.273438 704.578125 497.867188 689.492188 504.472656 L 648.207031 523.042969 C 647.117188 523.53125 646.21875 524.429688 645.703125 525.542969 L 596.085938 633.972656 C 591.371094 641.261719 584.402344 646.808594 576.203125 649.742188 L 592.433594 556.785156 C 592.925781 554.039062 591.101562 551.429688 588.351562 550.9375 C 587.371094 550.777344 586.335938 550.910156 585.410156 551.320312 L 542.734375 570.542969 C 520.457031 580.574219 496.167969 585.359375 471.738281 584.542969 C 468.089844 584.4375 464.820312 582.316406 463.242188 579.023438 L 439.824219 530.113281 C 439.003906 528.425781 439.714844 526.386719 441.402344 525.570312 C 442.464844 525.082031 443.714844 525.136719 444.695312 525.761719 L 483.476562 550.070312 C 485.980469 551.644531 489.113281 551.863281 491.835938 550.640625 L 553.300781 522.960938 C 555.835938 521.820312 556.949219 518.855469 555.808594 516.328125 C 555.425781 515.429688 554.746094 514.667969 553.925781 514.152344 L 499.925781 479.894531 C 508.695312 475.300781 518.769531 473.859375 528.464844 475.871094 L 600.796875 500.09375 C 601.992188 500.503906 603.328125 500.449219 604.5 499.933594 L 677.402344 467.085938 C 684.210938 464.042969 691.617188 462.492188 699.078125 462.601562 Z M 699.160156 455.804688 C 690.71875 455.667969 682.304688 457.410156 674.597656 460.890625 L 602.320312 493.433594 L 530.261719 469.289062 C 518.445312 466.734375 506.105469 468.582031 495.566406 474.484375 C 492.625 476.140625 491.566406 479.867188 493.226562 482.804688 C 493.714844 483.699219 494.425781 484.433594 495.269531 485.003906 L 547.472656 518.121094 L 489.03125 544.441406 C 488.40625 544.710938 487.699219 544.683594 487.097656 544.304688 L 448.347656 519.996094 C 443.554688 517.007812 437.234375 518.449219 434.238281 523.207031 C 432.359375 526.167969 432.144531 529.894531 433.667969 533.046875 L 457.113281 581.960938 C 459.757812 587.535156 465.3125 591.152344 471.492188 591.367188 C 496.957031 592.210938 522.285156 587.210938 545.511719 576.769531 L 585.136719 558.90625 L 569.257812 649.742188 C 568.6875 653.0625 570.921875 656.242188 574.242188 656.8125 C 575.25 656.976562 576.257812 656.921875 577.210938 656.59375 C 587.53125 653.222656 596.300781 646.371094 602.074219 637.238281 L 651.613281 528.96875 L 692.242188 510.699219 C 707.847656 503.847656 722.5 494.984375 735.761719 484.296875 C 739.847656 481.171875 740.609375 475.324219 737.476562 471.246094 C 737.09375 470.757812 736.660156 470.296875 736.195312 469.886719 C 725.902344 460.96875 712.777344 455.996094 699.132812 455.804688 L 699.160156 455.804688 "/>
</g>
</g>
</svg>
