<?xml version="1.0" encoding="UTF-8"?>
<svg xmlns="http://www.w3.org/2000/svg" xmlns:xlink="http://www.w3.org/1999/xlink" width="67.5pt" height="54.749999pt" viewBox="0 0 67.5 54.749999" version="1.2">
<defs>
<clipPath id="clip1">
  <path d="M 0 0.078125 L 54.75 0.078125 L 54.75 54.425781 L 0 54.425781 Z M 0 0.078125 "/>
</clipPath>
<clipPath id="clip2">
  <path d="M 8.40625 8.402344 L 63.15625 8.402344 L 63.15625 44.296875 L 8.40625 44.296875 Z M 8.40625 8.402344 "/>
</clipPath>
</defs>
<g id="surface1">
<g clip-path="url(#clip1)" clip-rule="nonzero">
<path style=" stroke:none;fill-rule:nonzero;fill:rgb(81.17981%,80.778503%,96.469116%);fill-opacity:1;" d="M 27.375 0.078125 C 12.28125 0.078125 0 12.359375 0 27.453125 C 0 42.546875 12.28125 54.828125 27.375 54.828125 C 42.46875 54.828125 54.75 42.546875 54.75 27.453125 C 54.75 12.359375 42.46875 0.078125 27.375 0.078125 Z M 27.375 0.078125 "/>
</g>
<g clip-path="url(#clip2)" clip-rule="nonzero">
<path style=" stroke:none;fill-rule:nonzero;fill:rgb(26.669312%,0.389099%,79.60968%);fill-opacity:1;" d="M 55.96875 9.625 C 58.117188 9.65625 60.179688 10.441406 61.804688 11.84375 C 61.984375 12.007812 61.996094 12.289062 61.832031 12.472656 C 61.808594 12.496094 61.785156 12.523438 61.753906 12.542969 C 59.464844 14.386719 56.9375 15.917969 54.246094 17.097656 L 46.875 20.410156 C 46.683594 20.5 46.523438 20.660156 46.429688 20.855469 L 37.574219 40.207031 C 36.730469 41.507812 35.488281 42.496094 34.023438 43.019531 L 36.921875 26.433594 C 37.007812 25.941406 36.683594 25.476562 36.191406 25.386719 C 36.019531 25.359375 35.832031 25.382812 35.667969 25.457031 L 28.050781 28.886719 C 24.074219 30.675781 19.738281 31.53125 15.378906 31.386719 C 14.726562 31.367188 14.144531 30.988281 13.863281 30.402344 L 9.683594 21.671875 C 9.539062 21.371094 9.664062 21.007812 9.964844 20.863281 C 10.15625 20.773438 10.378906 20.785156 10.554688 20.894531 L 17.472656 25.234375 C 17.921875 25.515625 18.480469 25.554688 18.96875 25.335938 L 29.9375 20.394531 C 30.390625 20.191406 30.589844 19.664062 30.382812 19.210938 C 30.316406 19.050781 30.195312 18.917969 30.050781 18.824219 L 20.410156 12.710938 C 21.976562 11.890625 23.773438 11.632812 25.503906 11.992188 L 38.414062 16.316406 C 38.628906 16.390625 38.867188 16.378906 39.074219 16.285156 L 52.085938 10.425781 C 53.300781 9.882812 54.625 9.605469 55.957031 9.625 Z M 55.96875 8.414062 C 54.464844 8.386719 52.960938 8.699219 51.585938 9.320312 L 38.6875 15.128906 L 25.824219 10.820312 C 23.714844 10.363281 21.515625 10.691406 19.632812 11.746094 C 19.109375 12.042969 18.917969 12.707031 19.214844 13.230469 C 19.300781 13.390625 19.429688 13.519531 19.578125 13.625 L 28.898438 19.53125 L 18.464844 24.230469 C 18.355469 24.277344 18.226562 24.273438 18.121094 24.203125 L 11.203125 19.867188 C 10.347656 19.332031 9.222656 19.589844 8.6875 20.441406 C 8.351562 20.96875 8.3125 21.632812 8.585938 22.195312 L 12.769531 30.925781 C 13.242188 31.917969 14.234375 32.5625 15.335938 32.601562 C 19.878906 32.753906 24.402344 31.859375 28.546875 29.996094 L 35.621094 26.808594 L 32.785156 43.019531 C 32.683594 43.613281 33.082031 44.179688 33.675781 44.28125 C 33.855469 44.308594 34.035156 44.300781 34.203125 44.242188 C 36.046875 43.640625 37.613281 42.417969 38.644531 40.789062 L 47.484375 21.46875 L 54.734375 18.207031 C 57.519531 16.984375 60.136719 15.402344 62.503906 13.496094 C 63.234375 12.9375 63.367188 11.894531 62.808594 11.167969 C 62.742188 11.082031 62.664062 11 62.582031 10.925781 C 60.742188 9.335938 58.402344 8.445312 55.964844 8.414062 L 55.96875 8.414062 "/>
</g>
</g>
</svg>
